<?xml version="1.0" encoding="UTF-8"?>
<svg id="Layer_2" data-name="Layer 2" xmlns="http://www.w3.org/2000/svg" viewBox="0 0 374.34 304.35">
  <g id="Layer_1-2" data-name="Layer 1">
    <g>
      <path d="m372.8,121.47c-11.6,0-23.19-.02-34.79.04-1.37,0-1.75-.46-2.07-1.73-1.17-4.77-2.28-9.57-3.84-14.22-15.25-45.36-45.23-76.96-89.43-95.07-5.61-2.3-11.52-3.95-17.4-5.43-5.86-1.48-11.84-2.46-17.81-3.46-3.17-.53-6.42-.63-9.63-.98-1.08-.12-2.15-.4-3.22-.61h-2.18c-.27.11-.53.31-.8.32-2.8.02-5.59.02-8.39,0-.27,0-.53-.2-.8-.31h-2.5c-1.13.21-2.25.47-3.39.61-5.19.64-10.39,1.17-15.56,1.88-8.7,1.19-17.1,3.61-25.33,6.59-17.98,6.53-34.21,16.09-48.58,28.75-18.69,16.47-32.55,36.33-41.66,59.53-2.89,7.37-5.11,14.93-6.79,22.65-.24,1.1-.62,1.5-1.8,1.49-11.8-.05-23.6-.03-35.41-.03H0v61.57h1.65c11.7,0,23.4.01,35.1-.02,1.16,0,1.62.27,1.94,1.5,1.66,6.24,3.07,12.6,5.31,18.64,14.62,39.36,40.75,68.4,78.62,86.72,6.34,3.07,12.89,5.63,19.62,7.72,6.46,2.01,13,3.63,19.69,4.63,4.24.63,8.5,1.25,12.77,1.56,5.09.37,10.2.49,15.3.56,5.96.08,11.87-.65,17.78-1.39,11.24-1.42,22.11-4.18,32.69-8.12,20.89-7.77,39.18-19.62,54.88-35.43,13.47-13.56,24.05-29.1,31.62-46.66,3.95-9.17,7.06-18.62,9.02-28.44.13-.65.32-1.3,1.37-1.29,12.32.06,24.64.07,36.96.09v-61.76c-.51.05-1.02.13-1.54.13Zm-177.53,128.65c-25.5,1.97-48.46-5.07-68.62-20.84-15.4-12.05-26.06-27.53-32.51-46.19h186.16c-10.41,34.82-44.19,63.88-85.03,67.03ZM94.18,121.33c4.96-14.63,12.73-27.4,23.57-38.26,14.62-14.64,32.1-24.03,52.51-27.49,52.48-8.9,96.93,23.65,110.21,65.75H94.18Z" style="fill: #dc2627;"/>
      <g>
        <path d="m70.17,154.22c1.33,1.71,2,3.67,2,5.87,0,3.17-1.11,5.69-3.33,7.55-2.22,1.86-5.31,2.79-9.28,2.79h-17.69v-37.98h17.1c3.86,0,6.88.88,9.06,2.65,2.18,1.77,3.27,4.17,3.27,7.2,0,2.24-.59,4.09-1.76,5.57-1.17,1.48-2.73,2.51-4.68,3.08,2.2.47,3.97,1.56,5.3,3.27Zm-19.04-6.41h6.06c1.51,0,2.68-.33,3.49-1,.81-.67,1.22-1.65,1.22-2.95s-.41-2.29-1.22-2.98c-.81-.68-1.98-1.03-3.49-1.03h-6.06v7.95Zm10.42,14.09c.85-.7,1.27-1.72,1.27-3.06s-.44-2.38-1.33-3.14c-.88-.76-2.1-1.14-3.65-1.14h-6.71v8.39h6.82c1.55,0,2.75-.35,3.6-1.06Z" style="fill: #fff;"/>
        <path d="m86.62,132.45v22.72c0,2.27.56,4.02,1.68,5.25,1.12,1.23,2.76,1.84,4.92,1.84s3.82-.61,4.98-1.84c1.15-1.23,1.73-2.98,1.73-5.25v-22.72h9.25v22.67c0,3.39-.72,6.26-2.16,8.6-1.44,2.35-3.38,4.11-5.82,5.3-2.43,1.19-5.15,1.79-8.14,1.79s-5.67-.59-8.03-1.76c-2.36-1.17-4.23-2.94-5.6-5.3-1.37-2.36-2.06-5.24-2.06-8.63v-22.67h9.25Z" style="fill: #fff;"/>
        <path d="m121.95,169.45c-2.2-.9-3.96-2.24-5.27-4-1.32-1.77-2.01-3.9-2.08-6.38h9.85c.14,1.41.63,2.48,1.46,3.22.83.74,1.91,1.11,3.25,1.11s2.45-.32,3.25-.95c.79-.63,1.19-1.51,1.19-2.62,0-.94-.32-1.71-.95-2.33-.63-.61-1.41-1.12-2.33-1.51s-2.23-.85-3.92-1.35c-2.45-.76-4.45-1.51-6-2.27-1.55-.76-2.89-1.87-4-3.35-1.12-1.48-1.68-3.41-1.68-5.79,0-3.53,1.28-6.3,3.84-8.3s5.9-3,10.01-3,7.56,1,10.12,3,3.93,4.79,4.11,8.36h-10.01c-.07-1.23-.52-2.19-1.35-2.9-.83-.7-1.89-1.05-3.19-1.05-1.12,0-2.02.3-2.71.89-.69.6-1.03,1.45-1.03,2.57,0,1.23.58,2.18,1.73,2.87,1.15.69,2.96,1.43,5.41,2.22,2.45.83,4.44,1.62,5.98,2.38,1.53.76,2.86,1.86,3.98,3.3,1.12,1.44,1.68,3.3,1.68,5.57s-.55,4.13-1.65,5.9c-1.1,1.77-2.7,3.17-4.79,4.22-2.09,1.05-4.56,1.57-7.41,1.57s-5.27-.45-7.47-1.35Z" style="fill: #fff;"/>
        <path d="m177.24,154.22c1.33,1.71,2,3.67,2,5.87,0,3.17-1.11,5.69-3.33,7.55-2.22,1.86-5.31,2.79-9.28,2.79h-17.69v-37.98h17.1c3.86,0,6.88.88,9.06,2.65,2.18,1.77,3.27,4.17,3.27,7.2,0,2.24-.59,4.09-1.76,5.57-1.17,1.48-2.73,2.51-4.68,3.08,2.2.47,3.97,1.56,5.3,3.27Zm-19.04-6.41h6.06c1.51,0,2.68-.33,3.49-1,.81-.67,1.22-1.65,1.22-2.95s-.41-2.29-1.22-2.98c-.81-.68-1.98-1.03-3.49-1.03h-6.06v7.95Zm10.42,14.09c.85-.7,1.27-1.72,1.27-3.06s-.44-2.38-1.33-3.14c-.88-.76-2.1-1.14-3.65-1.14h-6.71v8.39h6.82c1.55,0,2.75-.35,3.6-1.06Z" style="fill: #fff;"/>
        <path d="m192.74,168.31c-2.98-1.66-5.34-3.98-7.09-6.95-1.75-2.98-2.62-6.32-2.62-10.04s.87-7.05,2.62-10.01c1.75-2.96,4.11-5.26,7.09-6.92,2.98-1.66,6.25-2.49,9.82-2.49s6.84.83,9.82,2.49c2.98,1.66,5.32,3.97,7.03,6.92,1.71,2.96,2.57,6.3,2.57,10.01s-.87,7.06-2.6,10.04c-1.73,2.98-4.08,5.29-7.03,6.95-2.96,1.66-6.22,2.49-9.79,2.49s-6.84-.83-9.82-2.49Zm17.1-8.98c1.82-2.02,2.73-4.69,2.73-8.01s-.91-6.03-2.73-8.03c-1.82-2-4.25-3-7.28-3s-5.51.99-7.33,2.98c-1.82,1.98-2.73,4.67-2.73,8.06s.91,6.03,2.73,8.03c1.82,2,4.26,3,7.33,3s5.45-1.01,7.28-3.03Z" style="fill: #fff;"/>
        <path d="m250.76,163.72h-14.17l-2.27,6.71h-9.68l13.74-37.98h10.71l13.74,37.98h-9.79l-2.27-6.71Zm-2.38-7.14l-4.71-13.9-4.65,13.9h9.36Z" style="fill: #fff;"/>
        <path d="m286.36,170.42l-7.9-14.34h-2.22v14.34h-9.25v-37.98h15.53c2.99,0,5.55.52,7.66,1.57,2.11,1.05,3.69,2.48,4.73,4.3,1.05,1.82,1.57,3.85,1.57,6.09,0,2.53-.71,4.78-2.14,6.76-1.43,1.98-3.53,3.39-6.3,4.22l8.76,15.04h-10.44Zm-10.12-20.88h5.74c1.69,0,2.97-.41,3.81-1.24.85-.83,1.27-2,1.27-3.52s-.42-2.58-1.27-3.41-2.12-1.24-3.81-1.24h-5.74v9.41Z" style="fill: #fff;"/>
        <path d="m327,134.82c2.99,1.59,5.31,3.82,6.95,6.68,1.64,2.87,2.46,6.18,2.46,9.93s-.82,7.02-2.46,9.9c-1.64,2.89-3.97,5.12-6.98,6.71-3.01,1.59-6.5,2.38-10.47,2.38h-14.23v-37.98h14.23c4,0,7.5.79,10.5,2.38Zm-2.92,24.72c1.95-1.91,2.92-4.62,2.92-8.12s-.97-6.22-2.92-8.17c-1.95-1.95-4.67-2.92-8.17-2.92h-4.38v22.07h4.38c3.5,0,6.22-.96,8.17-2.87Z" style="fill: #fff;"/>
      </g>
    </g>
  </g>
</svg>