<?xml version="1.0" encoding="UTF-8"?>
<svg id="Layer_2" data-name="Layer 2" xmlns="http://www.w3.org/2000/svg" viewBox="0 0 374.34 350.7">
  <g id="Layer_1-2" data-name="Layer 1">
    <g>
      <path d="m372.8,167.82c-11.6,0-23.19-.02-34.79.04-1.37,0-1.75-.46-2.07-1.73-1.17-4.77-2.28-9.57-3.84-14.22-15.25-45.36-45.23-76.96-89.43-95.07-5.61-2.3-11.52-3.95-17.4-5.43-5.86-1.48-11.84-2.46-17.81-3.46-3.17-.53-6.42-.63-9.63-.98-1.08-.12-2.15-.4-3.22-.61h-2.18c-.27.11-.53.31-.8.32-2.8.02-5.59.02-8.39,0-.27,0-.53-.2-.8-.31h-2.5c-1.13.21-2.25.47-3.39.61-5.19.64-10.39,1.17-15.56,1.88-8.7,1.19-17.1,3.61-25.33,6.59-17.98,6.53-34.21,16.09-48.58,28.75-18.69,16.47-32.55,36.33-41.66,59.53-2.89,7.37-5.11,14.93-6.79,22.65-.24,1.1-.62,1.5-1.8,1.49-11.8-.05-23.6-.03-35.41-.03H0v61.57h1.65c11.7,0,23.4.01,35.1-.02,1.16,0,1.62.27,1.94,1.5,1.66,6.24,3.07,12.6,5.31,18.64,14.62,39.36,40.75,68.4,78.62,86.72,6.34,3.07,12.89,5.63,19.62,7.72,6.46,2.01,13,3.63,19.69,4.63,4.24.63,8.5,1.25,12.77,1.56,5.09.37,10.2.49,15.3.56,5.96.08,11.87-.65,17.78-1.39,11.24-1.42,22.11-4.18,32.69-8.12,20.89-7.77,39.18-19.62,54.88-35.43,13.47-13.56,24.05-29.1,31.62-46.66,3.95-9.17,7.06-18.62,9.02-28.44.13-.65.32-1.3,1.37-1.29,12.32.06,24.64.07,36.96.09v-61.76c-.51.05-1.02.13-1.54.13Zm-177.53,128.65c-25.5,1.97-48.46-5.07-68.62-20.84-15.4-12.05-26.06-27.53-32.51-46.19h186.16c-10.41,34.82-44.19,63.88-85.03,67.03Zm-101.09-128.79c4.96-14.63,12.73-27.4,23.57-38.26,14.62-14.64,32.1-24.03,52.51-27.49,52.48-8.9,96.93,23.65,110.21,65.75H94.18Z" style="fill: #dc2627;"/>
      <text transform="translate(73.19 185.31) rotate(-78.18)" style="fill: #fff; font-family: Poppins-Bold, Poppins; font-size: 36px; font-weight: 700;"><tspan x="0" y="0">J</tspan></text>
      <text transform="translate(76.73 165.95) rotate(-66.44)" style="fill: #fff; font-family: Poppins-Bold, Poppins; font-size: 36px; font-weight: 700;"><tspan x="0" y="0">O</tspan></text>
      <text transform="translate(87.56 141.17) rotate(-53.8)" style="fill: #fff; font-family: Poppins-Bold, Poppins; font-size: 36px; font-weight: 700;"><tspan x="0" y="0">U</tspan></text>
      <text transform="translate(101.82 121.64) rotate(-42.14)" style="fill: #fff; font-family: Poppins-Bold, Poppins; font-size: 36px; font-weight: 700;"><tspan x="0" y="0">R</tspan></text>
      <text transform="translate(118.15 106.45) rotate(-30.05)" style="fill: #fff; font-family: Poppins-Bold, Poppins; font-size: 36px; font-weight: 700;"><tspan x="0" y="0">N</tspan></text>
      <text transform="translate(140.72 93.69) rotate(-19)" style="fill: #fff; font-family: Poppins-Bold, Poppins; font-size: 36px; font-weight: 700;"><tspan x="0" y="0">E</tspan></text>
      <text transform="translate(158.05 87.4) rotate(-8.68)" style="fill: #fff; font-family: Poppins-Bold, Poppins; font-size: 36px; font-weight: 700;"><tspan x="0" y="0">Y</tspan></text>
      <text transform="translate(181.2 84.36) rotate(-1.13)" style="fill: #fff; font-family: Poppins-Bold, Poppins; font-size: 36px; font-weight: 700;"><tspan x="0" y="0"> </tspan></text>
      <text transform="translate(188.08 83.71) rotate(6.03)" style="fill: #fff; font-family: Poppins-Bold, Poppins; font-size: 36px; font-weight: 700;"><tspan x="0" y="0">P</tspan></text>
      <text transform="translate(209.42 86.1) rotate(15.53)" style="fill: #fff; font-family: Poppins-Bold, Poppins; font-size: 36px; font-weight: 700;"><tspan x="0" y="0">L</tspan></text>
      <text transform="translate(225.11 89.93) rotate(25.95)" style="fill: #fff; font-family: Poppins-Bold, Poppins; font-size: 36px; font-weight: 700;"><tspan x="0" y="0">A</tspan></text>
      <text transform="translate(247.93 100.84) rotate(38.57)" style="fill: #fff; font-family: Poppins-Bold, Poppins; font-size: 36px; font-weight: 700;"><tspan x="0" y="0">N</tspan></text>
      <text transform="translate(268.2 116.82) rotate(51.53)" style="fill: #fff; font-family: Poppins-Bold, Poppins; font-size: 36px; font-weight: 700;"><tspan x="0" y="0">N</tspan></text>
      <text transform="translate(284.11 137.25) rotate(62.63)" style="fill: #fff; font-family: Poppins-Bold, Poppins; font-size: 36px; font-weight: 700;"><tspan x="0" y="0">E</tspan></text>
      <text transform="translate(292.83 153.51) rotate(72.81)" style="fill: #fff; font-family: Poppins-Bold, Poppins; font-size: 36px; font-weight: 700;"><tspan x="0" y="0">R</tspan></text>
      <g>
        <path d="m121.31,200.11c.74.95,1.11,2.03,1.11,3.25,0,1.76-.61,3.15-1.84,4.18-1.23,1.03-2.94,1.54-5.14,1.54h-9.79v-21.02h9.46c2.14,0,3.81.49,5.02,1.47,1.21.98,1.81,2.31,1.81,3.98,0,1.24-.32,2.27-.97,3.08-.65.82-1.51,1.39-2.59,1.71,1.22.26,2.2.86,2.93,1.81Zm-10.54-3.55h3.35c.84,0,1.48-.18,1.93-.55.45-.37.67-.91.67-1.63s-.22-1.27-.67-1.65c-.45-.38-1.09-.57-1.93-.57h-3.35v4.4Zm5.77,7.8c.47-.39.7-.95.7-1.69s-.25-1.32-.73-1.74c-.49-.42-1.16-.63-2.02-.63h-3.71v4.64h3.77c.86,0,1.52-.19,1.99-.58Z" style="fill: #fff;"/>
        <path d="m130.42,188.05v12.58c0,1.26.31,2.23.93,2.91.62.68,1.53,1.02,2.73,1.02s2.12-.34,2.76-1.02c.64-.68.96-1.65.96-2.91v-12.58h5.12v12.55c0,1.88-.4,3.46-1.2,4.76-.8,1.3-1.87,2.28-3.22,2.94-1.35.66-2.85.99-4.51.99s-3.14-.32-4.45-.97c-1.31-.65-2.34-1.63-3.1-2.93-.76-1.31-1.14-2.9-1.14-4.78v-12.55h5.12Z" style="fill: #fff;"/>
        <path d="m149.97,208.54c-1.22-.5-2.19-1.24-2.92-2.22-.73-.98-1.11-2.16-1.15-3.53h5.45c.08.78.35,1.37.81,1.78.46.41,1.06.61,1.8.61s1.36-.17,1.8-.52c.44-.35.66-.83.66-1.45,0-.52-.17-.95-.52-1.29-.35-.34-.78-.62-1.29-.84s-1.23-.47-2.17-.75c-1.36-.42-2.47-.84-3.32-1.26-.86-.42-1.6-1.04-2.22-1.86-.62-.82-.93-1.89-.93-3.2,0-1.96.71-3.49,2.13-4.6s3.26-1.66,5.54-1.66,4.18.55,5.6,1.66,2.18,2.65,2.28,4.63h-5.54c-.04-.68-.29-1.21-.75-1.6-.46-.39-1.05-.58-1.77-.58-.62,0-1.12.16-1.5.49-.38.33-.57.8-.57,1.42,0,.68.32,1.21.96,1.59.64.38,1.64.79,2.99,1.23,1.36.46,2.46.9,3.31,1.32.85.42,1.58,1.03,2.2,1.83.62.8.93,1.83.93,3.08s-.3,2.29-.91,3.26c-.61.98-1.49,1.76-2.65,2.34-1.16.58-2.53.87-4.1.87s-2.92-.25-4.13-.75Z" style="fill: #fff;"/>
        <path d="m180.58,200.11c.74.95,1.11,2.03,1.11,3.25,0,1.76-.61,3.15-1.84,4.18-1.23,1.03-2.94,1.54-5.14,1.54h-9.79v-21.02h9.46c2.14,0,3.81.49,5.02,1.47,1.21.98,1.81,2.31,1.81,3.98,0,1.24-.32,2.27-.97,3.08-.65.82-1.51,1.39-2.59,1.71,1.22.26,2.2.86,2.93,1.81Zm-10.54-3.55h3.35c.84,0,1.48-.18,1.93-.55.45-.37.67-.91.67-1.63s-.22-1.27-.67-1.65c-.45-.38-1.09-.57-1.93-.57h-3.35v4.4Zm5.77,7.8c.47-.39.7-.95.7-1.69s-.25-1.32-.73-1.74c-.49-.42-1.16-.63-2.02-.63h-3.71v4.64h3.77c.86,0,1.52-.19,1.99-.58Z" style="fill: #fff;"/>
        <path d="m189.16,207.91c-1.65-.92-2.96-2.2-3.92-3.85-.97-1.65-1.45-3.5-1.45-5.56s.48-3.9,1.45-5.54c.97-1.64,2.28-2.91,3.92-3.83,1.65-.92,3.46-1.38,5.44-1.38s3.79.46,5.44,1.38c1.65.92,2.94,2.2,3.89,3.83.95,1.64,1.42,3.48,1.42,5.54s-.48,3.91-1.44,5.56c-.96,1.65-2.26,2.93-3.89,3.85-1.64.92-3.44,1.38-5.42,1.38s-3.79-.46-5.44-1.38Zm9.46-4.97c1.01-1.12,1.51-2.6,1.51-4.43s-.5-3.34-1.51-4.45c-1.01-1.11-2.35-1.66-4.03-1.66s-3.05.55-4.06,1.65c-1.01,1.1-1.51,2.59-1.51,4.46s.5,3.34,1.51,4.45c1.01,1.11,2.36,1.66,4.06,1.66s3.02-.56,4.03-1.68Z" style="fill: #fff;"/>
        <path d="m221.28,205.36h-7.85l-1.26,3.71h-5.36l7.61-21.02h5.93l7.61,21.02h-5.42l-1.26-3.71Zm-1.32-3.95l-2.61-7.7-2.58,7.7h5.18Z" style="fill: #fff;"/>
        <path d="m240.99,209.08l-4.37-7.94h-1.23v7.94h-5.12v-21.02h8.6c1.66,0,3.07.29,4.24.87,1.17.58,2.04,1.37,2.62,2.38.58,1.01.87,2.13.87,3.37,0,1.4-.39,2.65-1.18,3.74-.79,1.1-1.95,1.88-3.49,2.34l4.85,8.33h-5.78Zm-5.6-11.56h3.17c.94,0,1.64-.23,2.11-.69.47-.46.7-1.11.7-1.95s-.24-1.43-.7-1.89-1.17-.69-2.11-.69h-3.17v5.21Z" style="fill: #fff;"/>
        <path d="m263.48,189.37c1.66.88,2.94,2.11,3.85,3.7s1.36,3.42,1.36,5.5-.45,3.88-1.36,5.48c-.91,1.6-2.2,2.84-3.86,3.71-1.67.88-3.6,1.32-5.8,1.32h-7.88v-21.02h7.88c2.22,0,4.15.44,5.81,1.32Zm-1.62,13.69c1.08-1.06,1.62-2.55,1.62-4.49s-.54-3.44-1.62-4.52c-1.08-1.08-2.59-1.62-4.52-1.62h-2.43v12.22h2.43c1.94,0,3.44-.53,4.52-1.59Z" style="fill: #fff;"/>
      </g>
    </g>
  </g>
</svg>